<?xml version="1.0" encoding="UTF-8"?>
<!DOCTYPE svg PUBLIC "-//W3C//DTD SVG 1.1//EN" "http://www.w3.org/Graphics/SVG/1.1/DTD/svg11.dtd">
<!-- Creator: CorelDRAW -->
<svg xmlns="http://www.w3.org/2000/svg" xml:space="preserve" width="27.4253mm" height="29.1841mm" version="1.1" style="shape-rendering:geometricPrecision; text-rendering:geometricPrecision; image-rendering:optimizeQuality; fill-rule:evenodd; clip-rule:evenodd"
viewBox="0 0 1189.71 1266.01"
 xmlns:xlink="http://www.w3.org/1999/xlink"
 xmlns:xodm="http://www.corel.com/coreldraw/odm/2003">
 <defs>
  <style type="text/css">
   <![CDATA[
    .fil0 {fill:black;fill-rule:nonzero}
   ]]>
  </style>
 </defs>
 <g id="Camada_x0020_1">
  <metadata id="CorelCorpID_0Corel-Layer"/>
  <path class="fil0" d="M16.41 1099.65l99.96 -112.25c-77.57,-102.11 -116.36,-220.25 -116.36,-354.24 0,-164.29 58.09,-304.22 174.29,-420.73 116.19,-116.19 256.43,-174.28 420.41,-174.28 109.94,0 208.99,26.02 297.4,78.06l103.47 -116.21 186.83 166.36 -104.94 117.85c74.82,100.95 112.25,217.1 112.25,348.94 0,163.98 -58.1,304.22 -174.28,420.41 -116.51,116.19 -256.44,174.29 -420.73,174.29 -107.22,0 -204.3,-24.85 -291.13,-74.52l-100.33 112.68 -186.83 -166.36zm289.78 -325.44l395.5 -444.17c-33.22,-11.57 -68.86,-17.34 -106.99,-17.34 -88.4,0 -163.98,31.23 -226.45,94.01 -62.47,62.47 -93.71,137.74 -93.71,226.45 0,51.36 10.55,98.4 31.64,141.05zm580.42 -275.65l-391.63 439.81c31.18,9.96 64.43,14.94 99.72,14.94 88.7,0 163.98,-31.23 226.45,-93.71 62.78,-62.47 94.01,-138.05 94.01,-226.45 0,-48.92 -9.5,-93.75 -28.55,-134.6z"/>
 </g>
</svg>
