<?xml version="1.0" encoding="UTF-8"?>
<!DOCTYPE svg PUBLIC "-//W3C//DTD SVG 1.1//EN" "http://www.w3.org/Graphics/SVG/1.1/DTD/svg11.dtd">
<!-- Creator: CorelDRAW -->
<svg xmlns="http://www.w3.org/2000/svg" xml:space="preserve" width="25.4mm" height="25.3994mm" version="1.1" style="shape-rendering:geometricPrecision; text-rendering:geometricPrecision; image-rendering:optimizeQuality; fill-rule:evenodd; clip-rule:evenodd"
viewBox="0 0 2540 2539.94"
 xmlns:xlink="http://www.w3.org/1999/xlink"
 xmlns:xodm="http://www.corel.com/coreldraw/odm/2003">
 <defs>
  <style type="text/css">
   <![CDATA[
    .fil0 {fill:white;fill-rule:nonzero}
   ]]>
  </style>
 </defs>
 <g id="Camada_x0020_1">
  <metadata id="CorelCorpID_0Corel-Layer"/>
  <g>
   <path class="fil0" d="M-0 1270c0.06,-701.27 568.79,-1270 1270,-1270 701.27,0 1270,568.73 1270,1270 0,701.21 -568.73,1269.94 -1270,1269.94 -701.21,0 -1269.94,-568.73 -1269.94,-1269.94l-0.06 0zm1190.62 -1099c-106.38,32.4 -211.92,130.2 -299.57,294.47 -28.62,54.36 -53.76,111.42 -74.22,169.56l373.79 0 0 -464.03zm-541.31 464.03c26.28,-84.24 60.72,-166.26 101.64,-244.26 27.54,-51.78 59.4,-101.57 94.68,-148.25 -196.26,81.47 -365.94,217.97 -487.56,392.51l291.24 0zm-92.4 555.59c4.74,-139.2 21.9,-272.75 49.56,-396.89l-340.73 0c-58.86,124.56 -94.26,259.43 -104.04,396.83l395.21 0.06zm212.58 -396.89c-30.96,129.84 -49.14,263.33 -53.52,396.83l474.65 0.06 0 -396.89 -421.13 0zm579.89 0l0 396.89 474.65 0c-4.26,-133.56 -22.44,-267.05 -53.4,-396.89l-421.25 0zm-633.41 555.65c4.32,133.5 22.5,266.99 53.46,396.83l421.19 0.06 0 -396.89 -474.65 0zm633.41 0l0 396.89 421.13 0c29.7,-121.44 48.6,-255.29 53.64,-396.89l-474.77 0zm-532.61 555.59c22.02,61.38 46.8,117.9 74.28,169.56 87.65,164.27 193.37,261.95 299.57,294.47l0 -464.03 -373.85 0zm28.92 392.45c-35.34,-46.68 -67.2,-96.47 -94.74,-148.13 -40.92,-78.12 -75.36,-160.14 -101.64,-244.32l-291.3 0c121.44,174.72 291.12,311.04 487.74,392.33l-0.06 0.12zm-239.28 -551.15c-28.26,-130.62 -45.24,-263.63 -49.5,-396.89l-395.27 0c9.84,141.3 46.2,275.09 104.16,396.89l340.61 0zm1087.9 551.15c196.62,-81.41 366.3,-217.73 487.74,-392.51l-291.36 0.06c-26.22,84.18 -60.66,166.2 -101.58,244.2 -27.54,51.78 -59.4,101.57 -94.68,148.25l-0.12 0zm-344.93 -392.45l0 464.03c106.38,-32.4 211.92,-130.2 299.57,-294.47 27.48,-51.54 52.26,-108.06 74.28,-169.56l-373.85 0zm584.21 -158.7l340.67 0c57.96,-121.74 94.32,-255.59 104.16,-396.89l-395.33 0c-4.2,133.26 -21.18,266.27 -49.56,396.65l0.06 0.24zm444.77 -555.65c-9.78,-137.46 -45.18,-272.33 -104.1,-396.89l-340.67 0c27.6,124.14 44.76,257.63 49.56,396.89l395.21 0zm-589.25 -799.91c39.24,73.68 73.32,155.58 101.58,244.32l291.3 0c-121.38,-174.78 -291.06,-311.1 -487.68,-392.39 34.62,45.06 66.36,94.91 94.8,148.13l0 -0.06zm-65.88 244.32c-20.46,-58.14 -45.6,-115.2 -74.28,-169.62 -87.65,-164.27 -193.19,-261.89 -299.57,-294.41l0 464.03 373.85 0z"/>
  </g>
 </g>
</svg>
