<?xml version="1.0" encoding="UTF-8"?>
<!DOCTYPE svg PUBLIC "-//W3C//DTD SVG 1.1//EN" "http://www.w3.org/Graphics/SVG/1.1/DTD/svg11.dtd">
<!-- Creator: CorelDRAW -->
<svg xmlns="http://www.w3.org/2000/svg" xml:space="preserve" width="146.071mm" height="42.5683mm" version="1.1" style="shape-rendering:geometricPrecision; text-rendering:geometricPrecision; image-rendering:optimizeQuality; fill-rule:evenodd; clip-rule:evenodd"
viewBox="0 0 4905.61 1429.61"
 xmlns:xlink="http://www.w3.org/1999/xlink"
 xmlns:xodm="http://www.corel.com/coreldraw/odm/2003">
 <defs>
  <style type="text/css">
   <![CDATA[
    .fil0 {fill:white;fill-rule:nonzero}
   ]]>
  </style>
 </defs>
 <g id="Camada_x0020_1">
  <metadata id="CorelCorpID_0Corel-Layer"/>
  <g id="_1852835494640">
   <path class="fil0" d="M580.92 478.73l0 -451.83 193.64 0 0 451.83c0,107.07 -37.89,198.49 -113.45,274.05 -75.34,75.56 -166.77,113.23 -273.83,113.23 -107.07,0 -198.49,-37.67 -274.05,-113.23 -75.56,-75.56 -113.23,-166.99 -113.23,-274.05l0 -451.83 193.64 0 0 451.83c0,53.31 18.94,98.91 56.84,136.8 37.89,37.89 83.49,56.84 136.8,56.84 53.31,0 98.91,-18.94 136.8,-56.84 37.89,-37.89 56.84,-83.49 56.84,-136.8zm1883.43 296.85l70.5 -79.17c-54.71,-72.02 -82.07,-155.35 -82.07,-249.84 0,-115.87 40.98,-214.57 122.93,-296.74 81.95,-81.95 180.86,-122.92 296.52,-122.92 77.55,0 147.4,18.35 209.75,55.06l72.98 -81.96 131.77 117.34 -74.01 83.12c52.77,71.2 79.17,153.12 79.17,246.11 0,115.66 -40.98,214.57 -122.92,296.52 -82.17,81.95 -180.87,122.93 -296.74,122.93 -75.62,0 -144.09,-17.52 -205.33,-52.56l-70.76 79.47 -131.77 -117.34zm204.38 -229.53l278.95 -313.28c-23.43,-8.16 -48.57,-12.23 -75.46,-12.23 -62.34,0 -115.66,22.03 -159.71,66.31 -44.06,44.06 -66.09,97.15 -66.09,159.71 0,36.23 7.44,69.4 22.32,99.49zm409.37 -194.42l-276.22 310.2c21.99,7.02 45.44,10.54 70.33,10.54 62.56,0 115.66,-22.03 159.71,-66.09 44.28,-44.06 66.31,-97.37 66.31,-159.71 0,-34.5 -6.7,-66.12 -20.14,-94.93zm-2045.36 3.95l0 510.43 -193.64 0 0 -839.11 234.39 0 281.98 510.65 0 -510.65 193.64 0 0 839.11 -234.39 0 -281.98 -510.43zm1188.28 217.43l179.98 77.33c-18.5,32.82 -42.08,63.66 -70.94,92.3 -82.17,82.17 -181.08,123.37 -296.96,123.37 -115.66,0 -214.57,-40.98 -296.52,-122.93 -81.95,-81.95 -122.93,-180.86 -122.93,-296.52 0,-115.87 40.98,-214.57 122.93,-296.74 81.95,-81.95 180.86,-122.92 296.52,-122.92 115.87,0 214.79,40.98 296.96,122.71 28.86,29.3 52.43,60.14 70.94,92.96l-179.98 77.33c-8.15,-11.46 -17.4,-22.69 -27.76,-33.49 -44.28,-43.84 -97.59,-65.87 -160.15,-65.87 -62.34,0 -115.66,22.03 -159.71,66.31 -44.06,44.06 -66.09,97.15 -66.09,159.71 0,62.34 22.03,115.66 66.09,159.71 44.06,44.06 97.37,66.09 159.71,66.09 62.56,0 115.87,-22.25 160.15,-66.53 10.35,-10.35 19.61,-21.15 27.76,-32.82zm1135.41 -546.11l387.28 0c89,0 165,31.5 228.01,94.73 63.22,63.01 94.73,139.01 94.73,228.01 0,89.22 -31.5,165.22 -94.73,228.23 -63.01,63.01 -139.01,94.51 -228.01,94.51l-193.64 0 0 193.64 -193.64 0 0 -839.11zm193.64 193.64l0 258.19 193.64 0c35.69,0 66.09,-12.56 91.2,-37.67 25.33,-25.11 37.89,-55.73 37.89,-91.42 0,-35.69 -12.56,-66.09 -37.89,-91.2 -25.11,-25.33 -55.52,-37.89 -91.2,-37.89l-193.64 0zm839.11 256.87l-322.74 -450.51 237.48 0 181.96 253.78 182.19 -253.78 237.48 0 -322.74 450.51 0 388.6 -193.64 0 0 -388.6z"/>
   <polygon class="fil0" points="-0,1148.47 1584.8,1148.47 1584.8,1301.27 -0,1301.27 "/>
   <polygon class="fil0" points="3320.8,1148.47 4905.61,1148.47 4905.61,1301.27 3320.8,1301.27 "/>
   <path class="fil0" d="M1854.29 1020.11l189 0 0 94.5 -189 0c-8.6,0 -16.02,3.12 -22.26,9.35 -6.13,6.13 -9.25,13.54 -9.25,22.15 0,8.6 3.12,16.02 9.25,22.26 6.24,6.13 13.66,9.25 22.26,9.25l63 0c34.83,0 64.5,12.25 89.12,36.88 24.51,24.51 36.88,54.29 36.88,89.12 0,34.83 -12.36,64.61 -36.88,89.12 -24.62,24.62 -54.29,36.88 -89.12,36.88l-189 0 0 -94.5 189 0c8.6,0 16.02,-3.12 22.15,-9.25 6.24,-6.24 9.35,-13.66 9.35,-22.26 0,-8.6 -3.12,-16.02 -9.35,-22.15 -6.13,-6.24 -13.55,-9.35 -22.15,-9.35l-63 0c-34.83,0 -64.61,-12.25 -89.12,-36.88 -24.62,-24.51 -36.88,-54.29 -36.88,-89.12 0,-34.83 12.25,-64.5 36.88,-89.12 24.51,-24.51 54.29,-36.88 89.12,-36.88zm504 220.49l0 -220.49 94.5 0 0 220.49c0,52.25 -18.49,96.87 -55.37,133.74 -36.77,36.88 -81.38,55.26 -133.63,55.26 -52.25,0 -96.87,-18.38 -133.74,-55.26 -36.88,-36.88 -55.26,-81.49 -55.26,-133.74l0 -220.49 94.5 0 0 220.49c0,26.02 9.25,48.27 27.74,66.76 18.49,18.49 40.75,27.74 66.76,27.74 26.01,0 48.27,-9.25 66.76,-27.74 18.49,-18.49 27.74,-40.75 27.74,-66.76zm220.49 -63l126 0c8.6,0 16.02,-3.12 22.15,-9.25 6.24,-6.24 9.35,-13.66 9.35,-22.26 0,-8.6 -3.12,-16.02 -9.35,-22.15 -6.13,-6.24 -13.54,-9.35 -22.15,-9.35l-126 0 0 63zm-94.5 -157.5l220.5 0c34.83,0 64.5,12.36 89.12,36.88 24.51,24.62 36.88,54.29 36.88,89.12 0,30.1 -9.14,56.33 -27.41,78.8 18.28,22.47 27.41,48.7 27.41,78.69 0,34.83 -12.37,64.61 -36.88,89.12 -24.62,24.62 -54.29,36.88 -89.12,36.88l-220.5 0 0 -409.49zm94.5 252l0 63 126 0c8.6,0 16.02,-3.12 22.15,-9.25 6.24,-6.24 9.35,-13.66 9.35,-22.26 0,-8.6 -3.12,-16.02 -9.35,-22.15 -6.13,-6.24 -13.54,-9.35 -22.15,-9.35l-126 0zm409.5 -252l189 0 0 94.5 -189 0c-8.6,0 -16.02,3.12 -22.26,9.35 -6.13,6.13 -9.25,13.54 -9.25,22.15 0,8.6 3.12,16.02 9.25,22.26 6.24,6.13 13.66,9.25 22.26,9.25l63 0c34.83,0 64.5,12.25 89.12,36.88 24.51,24.51 36.88,54.29 36.88,89.12 0,34.83 -12.36,64.61 -36.88,89.12 -24.62,24.62 -54.29,36.88 -89.12,36.88l-189 0 0 -94.5 189 0c8.6,0 16.02,-3.12 22.15,-9.25 6.24,-6.24 9.35,-13.66 9.35,-22.26 0,-8.6 -3.12,-16.02 -9.35,-22.15 -6.13,-6.24 -13.55,-9.35 -22.15,-9.35l-63 0c-34.83,0 -64.61,-12.25 -89.12,-36.88 -24.62,-24.51 -36.88,-54.29 -36.88,-89.12 0,-34.83 12.25,-64.5 36.88,-89.12 24.51,-24.51 54.29,-36.88 89.12,-36.88z"/>
  </g>
 </g>
</svg>
