<?xml version="1.0" encoding="UTF-8"?>
<!DOCTYPE svg PUBLIC "-//W3C//DTD SVG 1.1//EN" "http://www.w3.org/Graphics/SVG/1.1/DTD/svg11.dtd">
<!-- Creator: CorelDRAW -->
<svg xmlns="http://www.w3.org/2000/svg" xml:space="preserve" width="25.4mm" height="25.4mm" version="1.1" style="shape-rendering:geometricPrecision; text-rendering:geometricPrecision; image-rendering:optimizeQuality; fill-rule:evenodd; clip-rule:evenodd"
viewBox="0 0 2072.8 2072.8"
 xmlns:xlink="http://www.w3.org/1999/xlink"
 xmlns:xodm="http://www.corel.com/coreldraw/odm/2003">
 <defs>
  <style type="text/css">
   <![CDATA[
    .fil0 {fill:white;fill-rule:nonzero}
   ]]>
  </style>
 </defs>
 <g id="Camada_x0020_1">
  <metadata id="CorelCorpID_0Corel-Layer"/>
  <g>
   <path class="fil0" d="M2072.8 1036.43c0,572.25 -464.13,1036.38 -1036.43,1036.38 -572.25,0 -1036.38,-464.13 -1036.38,-1036.38 0,-572.3 464.13,-1036.43 1036.38,-1036.43 572.3,0 1036.43,464.13 1036.43,1036.43l0 0zm-999.26 -271.26c-100.87,41.96 -302.35,128.77 -604.47,260.39 -48.96,19.44 -74.67,38.49 -77.07,57.24 -3.87,31.48 35.65,43.92 89.42,60.91l22.67 7.15c52.88,17.24 124.12,37.31 161.04,38.09 33.64,0.83 71.1,-12.98 112.42,-41.52 282.33,-190.52 427.99,-286.78 437.1,-288.89 6.46,-1.57 15.57,-3.38 21.5,2.06 5.92,5.43 5.43,15.57 4.8,18.26 -3.87,16.7 -158.94,160.75 -239.14,235.37 -25.02,23.31 -42.75,39.76 -46.37,43.53 -7.83,8.13 -16.06,16.21 -24.29,24.09 -49.21,47.4 -86.03,82.9 1.96,140.97 42.35,28.01 76.29,50.92 110.12,73.98 36.77,25.12 73.59,50.14 121.28,81.48 12,7.98 23.6,16.06 34.81,24.29 42.89,30.55 81.62,58.02 129.17,53.62 27.71,-2.6 56.36,-28.5 70.85,-106.25 34.32,-183.57 101.84,-581.15 117.37,-745.03 0.29,-4.31 0.49,-8.67 0.49,-12.98 0,-9.3 -0.74,-18.66 -2.16,-27.81 -1.22,-10.87 -6.46,-20.91 -14.74,-28.15 -11.46,-7.79 -25.02,-12 -38.88,-12 -0.44,0 -0.88,0 -1.27,0 -38.88,0.64 -98.86,21.5 -386.57,141.21l-0.05 0zm0 0l0 0 0 0z"/>
  </g>
 </g>
</svg>
